HIERARCHY
ROOT SpineBase
{
  OFFSET 0.000000 0.000000 0.000000
  CHANNELS 6 Xposition Yposition Zposition Zrotation Xrotation Yrotation
  JOINT SpineMid
  {
    OFFSET -0.000000 26.801567 0.000000
    CHANNELS 3 Zrotation Xrotation Yrotation
    JOINT SpineShoulder
    {
      OFFSET -0.173026 19.877391 -0.558965
      CHANNELS 3 Zrotation Xrotation Yrotation
      JOINT Neck
      {
        OFFSET -0.113799 6.566221 -0.454351
        CHANNELS 3 Zrotation Xrotation Yrotation
        JOINT Head
        {
          OFFSET -3.165282 13.980605 -4.029275
          CHANNELS 3 Zrotation Xrotation Yrotation
          End Site
          {
            OFFSET 0 0 0
          }
        }
      }
      JOINT ShoulderLeft
      {
        OFFSET -17.728713 -4.988415 3.838046
        CHANNELS 3 Zrotation Xrotation Yrotation
        JOINT ElbowLeft
        {
          OFFSET -1.861262 -25.331593 1.110371
          CHANNELS 3 Zrotation Xrotation Yrotation
          JOINT WristLeft
          {
            OFFSET 0.762017 -20.979619 -6.419652
            CHANNELS 3 Zrotation Xrotation Yrotation
            JOINT HandLeft
            {
              OFFSET 1.316078 -6.811867 -1.581191
              CHANNELS 3 Zrotation Xrotation Yrotation
              JOINT HandTipLeft
              {
                OFFSET 0.749386 -7.029441 -2.222091
                CHANNELS 3 Zrotation Xrotation Yrotation
                End Site
                {
                  OFFSET 0 0 0
                }
              }
              JOINT ThumbLeft
              {
                OFFSET 4.309071 0.826139 -0.642391
                CHANNELS 3 Zrotation Xrotation Yrotation
                End Site
                {
                  OFFSET 0 0 0
                }
              }
            }
          }
        }
      }
      JOINT ShoulderRight
      {
        OFFSET 13.661197 -2.902875 -8.143647
        CHANNELS 3 Zrotation Xrotation Yrotation
        JOINT ElbowRight
        {
          OFFSET 4.884125 -24.003763 0.136167
          CHANNELS 3 Zrotation Xrotation Yrotation
          JOINT WristRight
          {
            OFFSET -2.968094 -18.656996 -6.580219
            CHANNELS 3 Zrotation Xrotation Yrotation
            JOINT HandRight
            {
              OFFSET -3.109899 -7.369606 -0.105457
              CHANNELS 3 Zrotation Xrotation Yrotation
              JOINT HandTipRight
              {
                OFFSET -0.801087 -7.542981 -1.228989
                CHANNELS 3 Zrotation Xrotation Yrotation
                End Site
                {
                  OFFSET 0 0 0
                }
              }
              JOINT ThumbRight
              {
                OFFSET -3.142058 1.922214 0.557924
                CHANNELS 3 Zrotation Xrotation Yrotation
                End Site
                {
                  OFFSET 0 0 0
                }
              }
            }
          }
        }
      }
    }
  }
  JOINT HipLeft
  {
    OFFSET -6.793352 0.080587 -0.719319
    CHANNELS 3 Zrotation Xrotation Yrotation
    JOINT KneeLeft
    {
      OFFSET 4.875622 -36.350976 4.572739
      CHANNELS 3 Zrotation Xrotation Yrotation
      JOINT AnkleLeft
      {
        OFFSET 6.754547 -40.875697 9.795337
        CHANNELS 3 Zrotation Xrotation Yrotation
        JOINT FootLeft
        {
          OFFSET -3.499920 -4.291091 -10.359787
          CHANNELS 3 Zrotation Xrotation Yrotation
          End Site
          {
            OFFSET 0 0 0
          }
        }
      }
    }
  }
  JOINT HipRight
  {
    OFFSET 5.580145 1.138305 -5.431911
    CHANNELS 3 Zrotation Xrotation Yrotation
    JOINT KneeRight
    {
      OFFSET 8.739624 -36.007260 2.213554
      CHANNELS 3 Zrotation Xrotation Yrotation
      JOINT AnkleRight
      {
        OFFSET 6.826894 -41.171702 7.514800
        CHANNELS 3 Zrotation Xrotation Yrotation
        JOINT FootRight
        {
          OFFSET -0.214605 -7.356561 -4.805737
          CHANNELS 3 Zrotation Xrotation Yrotation
          End Site
          {
            OFFSET 0 0 0
          }
        }
      }
    }
  }
}
MOTION
Frames: 12
Frame Time: 0.033333
57.268410 83.396271 299.452715 -1.409354 -5.684144 39.853230 -1.686330 -0.348086 -40.022570 -0.203436 -0.211040 -0.171817 8.626584 13.803045 2.239381 0.000000 0.000000 0.000000 5.029119 -0.533209 0.678432 -6.558200 3.101051 1.026596 0.154946 7.481696 0.638532 1.594523 -15.071438 -2.454671 0.000000 0.000000 0.000000 0.000000 0.000000 0.000000 4.588215 12.626705 0.909039 2.263302 -24.720866 1.592543 4.983276 11.064730 0.036323 -2.895185 -9.226964 -1.884671 0.000000 0.000000 0.000000 0.000000 0.000000 0.000000 5.066267 4.384354 -40.007561 0.006917 0.147707 0.016443 -6.445243 -3.555823 17.958775 0.000000 0.000000 0.000000 6.391932 0.863899 -40.169112 -1.924625 -0.683917 -0.017440 -3.252373 2.960923 1.589139 0.000000 0.000000 0.000000
57.207131 83.366775 299.275126 -1.870176 -6.780104 42.209740 -1.519584 -0.152712 -42.430552 -0.151973 -0.158755 -0.192833 9.134750 14.953885 2.212657 0.000000 0.000000 0.000000 4.934895 -1.551543 0.818507 -7.267802 3.730664 1.464236 -0.730956 7.479009 0.752136 2.818669 -16.045744 -2.861232 0.000000 0.000000 0.000000 0.000000 0.000000 0.000000 5.033168 13.265748 0.822919 1.956541 -25.554011 1.865482 6.023835 10.889597 -0.024251 -4.397087 -8.066514 -2.203715 0.000000 0.000000 0.000000 0.000000 0.000000 0.000000 6.145266 4.562622 -42.482984 -0.124849 0.582288 0.045031 -6.666649 -4.609676 19.777484 0.000000 0.000000 0.000000 7.653490 0.879782 -42.622362 -1.976732 -0.958721 -0.031394 -3.991202 2.549337 2.004318 0.000000 0.000000 0.000000
57.161035 83.306973 299.115451 -2.308093 -7.806750 44.375439 -1.388261 -0.052721 -44.656982 -0.112966 -0.146927 -0.214438 9.419520 16.364325 2.191809 0.000000 0.000000 0.000000 4.780705 -2.508864 0.950371 -7.919591 3.794332 1.877126 -1.219900 7.608962 0.694192 3.635934 -14.956180 -2.848513 0.000000 0.000000 0.000000 0.000000 0.000000 0.000000 5.411909 14.199951 0.777302 1.927518 -27.182031 2.204636 6.946778 11.750450 -0.440870 -5.121960 -8.083684 -2.322840 0.000000 0.000000 0.000000 0.000000 0.000000 0.000000 7.122917 3.947666 -44.778744 -0.771254 1.540388 0.080451 -6.808085 -5.679941 21.603687 0.000000 0.000000 0.000000 8.870842 0.789243 -44.882736 -2.072763 -1.167403 -0.042185 -4.572403 2.302938 2.323168 0.000000 0.000000 0.000000
57.156740 83.214580 298.923046 -2.695658 -8.724681 46.336983 -1.178271 0.003900 -46.682100 -0.062709 -0.114193 -0.229434 9.279965 17.672010 2.189420 0.000000 0.000000 0.000000 4.423912 -3.289034 1.056905 -8.380509 3.307422 2.212236 -0.395446 7.986078 0.186082 3.324480 -15.669205 -2.841999 0.000000 0.000000 0.000000 0.000000 0.000000 0.000000 5.674325 14.647299 0.672242 1.784015 -28.134254 2.532524 7.406489 12.249250 -0.644321 -5.526106 -7.994420 -2.475466 0.000000 0.000000 0.000000 0.000000 0.000000 0.000000 8.188872 4.047777 -46.832531 -1.061690 1.755047 0.052143 -6.829952 -6.664152 23.242626 0.000000 0.000000 0.000000 9.951103 0.648619 -46.930146 -2.128453 -1.378937 -0.052956 -5.124591 2.177736 2.626913 0.000000 0.000000 0.000000
57.193136 83.110573 298.721414 -3.005968 -9.473218 48.116701 -0.912489 0.039920 -48.519869 -0.010473 -0.064070 -0.237629 8.932588 18.616502 2.197352 0.000000 0.000000 0.000000 4.014734 -4.045376 1.148050 -8.650319 2.379031 2.401526 0.122676 8.731988 -0.157039 3.749594 -12.511462 -2.330555 0.000000 0.000000 0.000000 0.000000 0.000000 0.000000 5.866409 14.833450 0.561486 1.499276 -28.887621 2.835632 7.890927 12.797014 -0.951854 -6.072092 -8.732554 -2.406034 0.000000 0.000000 0.000000 0.000000 0.000000 0.000000 9.077571 4.053475 -48.687737 -1.375338 1.972625 0.020205 -6.756547 -7.543314 24.624227 0.000000 0.000000 0.000000 10.801860 0.435005 -48.783055 -2.177663 -1.516465 -0.054895 -5.447170 2.221211 2.793996 0.000000 0.000000 0.000000
57.278830 83.001527 298.538855 -3.224242 -10.061916 49.787370 -0.784699 -0.006348 -50.241172 0.015473 -0.069618 -0.246150 8.664602 19.655784 2.223035 0.000000 0.000000 0.000000 3.792962 -4.572120 1.220903 -8.998455 1.170393 2.517224 1.359939 9.359710 -0.880284 3.042006 -9.607336 -1.548324 0.000000 0.000000 0.000000 0.000000 0.000000 0.000000 6.009952 14.963611 0.434074 1.191690 -29.137641 3.071810 8.287109 12.559488 -0.908263 -6.958095 -7.682593 -2.611734 0.000000 0.000000 0.000000 0.000000 0.000000 0.000000 8.901860 4.178479 -50.514095 -1.029830 2.760642 0.161219 -6.617245 -8.413743 25.941901 0.000000 0.000000 0.000000 11.387097 0.197732 -50.516029 -2.138105 -1.533117 -0.029181 -5.913880 2.165693 3.035323 0.000000 0.000000 0.000000
57.376407 82.893772 298.388502 -3.382355 -10.554599 51.208266 -0.593394 -0.050352 -51.704837 0.054521 -0.034677 -0.248110 8.247508 20.422331 2.266273 0.000000 0.000000 0.000000 3.570514 -4.970880 1.274265 -9.147377 -0.141484 2.490256 2.798417 11.174672 -1.396107 1.795337 -10.506230 -1.319499 0.000000 0.000000 0.000000 0.000000 0.000000 0.000000 5.997931 14.870254 0.325957 0.649977 -29.004112 3.254424 8.961968 11.652478 -0.750864 -7.931180 -6.521146 -2.860905 0.000000 0.000000 0.000000 0.000000 0.000000 0.000000 9.125496 3.992110 -52.019263 -1.259358 3.314988 0.198600 -6.432486 -9.119546 27.003399 0.000000 0.000000 0.000000 11.921727 0.034527 -51.969753 -2.139940 -1.699323 -0.043875 -6.263069 2.214533 3.254316 0.000000 0.000000 0.000000
57.502718 82.798265 298.274454 -3.442522 -10.873600 52.396752 -0.546432 -0.116930 -52.919120 0.075044 -0.052943 -0.251101 7.904227 21.012341 2.282366 0.000000 0.000000 0.000000 3.860852 -5.239038 1.313408 -9.361326 -1.345573 2.316425 1.974213 13.944529 -0.594288 2.463262 -10.949057 -1.658622 0.000000 0.000000 0.000000 0.000000 0.000000 0.000000 5.886976 14.982318 0.277758 0.089444 -29.032251 3.400745 9.464137 11.238104 -0.832268 -8.732419 -6.431103 -2.819024 0.000000 0.000000 0.000000 0.000000 0.000000 0.000000 9.151739 3.865192 -53.269316 -1.405626 3.770015 0.236873 -6.238679 -9.638949 27.765356 0.000000 0.000000 0.000000 12.203416 -0.077584 -53.176196 -2.060446 -1.816404 -0.044969 -6.695603 1.894745 3.522645 0.000000 0.000000 0.000000
57.628075 82.731338 298.111123 -3.416486 -11.137699 53.549122 -0.491307 -0.154855 -54.082343 0.095653 -0.056409 -0.249976 7.588439 21.455632 2.303805 0.000000 0.000000 0.000000 3.878138 -5.626602 1.360569 -9.210730 -2.081429 2.101559 -0.212345 21.243383 2.320460 3.510451 -16.315571 -3.286318 0.000000 0.000000 0.000000 0.000000 0.000000 0.000000 5.691721 15.063665 0.254075 -0.509341 -29.071124 3.526556 9.672218 11.607523 -1.247316 -8.643887 -6.708972 -2.698016 0.000000 0.000000 0.000000 0.000000 0.000000 0.000000 9.114530 3.837104 -54.468879 -1.426865 4.113410 0.280218 -6.110266 -10.026731 28.333820 0.000000 0.000000 0.000000 12.342559 -0.149949 -54.346506 -1.980222 -1.872399 -0.037901 -6.952992 1.942068 3.686111 0.000000 0.000000 0.000000
57.752945 82.705547 297.972324 -3.322558 -11.265682 54.492859 -0.478688 -0.156412 -55.019457 0.098555 -0.062498 -0.246910 7.441024 21.536478 2.287966 0.000000 0.000000 0.000000 4.148777 -5.522068 1.359541 -9.197357 -2.552623 1.905538 -2.553036 23.702033 4.245283 4.564434 -18.831948 -4.142211 0.000000 0.000000 0.000000 0.000000 0.000000 0.000000 5.461823 15.134607 0.267847 -1.029242 -29.066379 3.594243 10.419971 11.126457 -1.427949 -9.559611 -6.214228 -2.645794 0.000000 0.000000 0.000000 0.000000 0.000000 0.000000 8.963102 3.941079 -55.439673 -1.241844 4.273035 0.324955 -7.433476 -8.800505 29.572305 0.000000 0.000000 0.000000 12.310375 -0.158138 -55.295098 -1.853573 -1.941164 -0.031725 -7.183421 2.743308 3.830875 0.000000 0.000000 0.000000
57.871545 82.685696 297.830364 -3.206831 -11.342787 55.249905 -0.470066 -0.146576 -55.763885 0.094255 -0.073883 -0.243009 7.448154 21.675744 2.295695 0.000000 0.000000 0.000000 4.105514 -5.622045 1.375193 -9.165241 -2.337432 1.886003 -4.682182 25.409249 6.022573 5.047514 -22.224447 -5.141940 0.000000 0.000000 0.000000 0.000000 0.000000 0.000000 5.220786 15.210526 0.297204 -1.406983 -29.134096 3.644461 11.196959 10.977753 -1.758085 -9.942464 -6.201179 -2.605835 0.000000 0.000000 0.000000 0.000000 0.000000 0.000000 8.742899 3.997013 -56.219127 -1.149304 4.535538 0.375134 -5.679727 -10.852662 28.773799 0.000000 0.000000 0.000000 12.215871 -0.132485 -56.056444 -1.694942 -1.991460 -0.017493 -7.541540 3.523704 4.045949 0.000000 0.000000 0.000000
57.972888 82.680816 297.698410 -3.083013 -11.378211 55.772404 -0.468364 -0.131756 -56.270478 0.088933 -0.078882 -0.238509 7.556325 21.849784 2.321077 0.000000 0.000000 0.000000 3.981346 -5.448863 1.366684 -9.226451 -1.952206 1.964842 -6.365938 23.936349 6.673207 7.692651 -20.760263 -5.206945 0.000000 0.000000 0.000000 0.000000 0.000000 0.000000 4.966579 15.352727 0.353661 -1.587502 -29.378891 3.667846 12.027741 10.665416 -1.962604 -10.850746 -5.278019 -2.600602 0.000000 0.000000 0.000000 0.000000 0.000000 0.000000 8.509723 4.079999 -56.757078 -1.027588 4.759189 0.425336 -4.248911 -12.583463 28.098304 0.000000 0.000000 0.000000 12.045427 -0.084910 -56.592333 -1.513338 -1.949662 0.016497 -7.941434 4.735558 4.266271 0.000000 0.000000 0.000000
